<?xml version="1.0" encoding="UTF-8"?>
<!DOCTYPE svg PUBLIC "-//W3C//DTD SVG 1.1//EN" "http://www.w3.org/Graphics/SVG/1.1/DTD/svg11.dtd">
<!-- Creator: CorelDRAW -->
<svg xmlns="http://www.w3.org/2000/svg" xml:space="preserve" width="64px" height="64px" style="shape-rendering:geometricPrecision; text-rendering:geometricPrecision; image-rendering:optimizeQuality; fill-rule:evenodd; clip-rule:evenodd"
viewBox="0 0 640 640"
 xmlns:xlink="http://www.w3.org/1999/xlink">
 <defs>
  <style type="text/css">
   <![CDATA[
    .fil0 {fill:black}
   ]]>
  </style>
 </defs>
 <g id="Layer_x0020_1">
  <metadata id="CorelCorpID_0Corel-Layer"/>
  <path style="fill:#CFD8DC;" class="fil0" d="M567.704 245.802c40.0162,-0.30709 72.3907,31.8783 72.308,71.9064 -0.0944894,40.0162 -32.6106,72.7096 -72.6269,73.0166l-175.49 1.22836 -1.22836 175.691c-0.330713,39.6855 -33.0122,71.8237 -72.993,71.7765 -39.9926,-0.0472447 -72.1308,-32.2799 -71.8001,-71.9773l1.21655 -174.475 -174.793 1.22836c-40.0162,0.30709 -72.3907,-31.8783 -72.308,-71.9064 0.0944894,-40.0162 32.6106,-72.7096 72.6269,-73.0166l175.49 -1.22836 1.22836 -175.691c0.330713,-39.6855 33.0122,-71.8237 72.993,-71.7765 39.9926,0.0472447 72.1308,32.2799 71.8001,71.9773l-1.21655 174.475 174.793 -1.22836z"/>
 </g>
</svg>
